<?xml version="1.0" encoding="utf-8"?>
<!-- Generator: Adobe Illustrator 28.3.0, SVG Export Plug-In . SVG Version: 6.00 Build 0)  -->
<svg version="1.1" id="Layer_1" xmlns="http://www.w3.org/2000/svg" xmlns:xlink="http://www.w3.org/1999/xlink" x="0px" y="0px"
	 viewBox="0 0 500 500" style="enable-background:new 0 0 500 500;" xml:space="preserve">
<style type="text/css">
	.st0{fill:#FFFFFF;}
</style>
<g>
	<path class="st0" d="M79.1,347.1H39.5v-131h37l2.6,13.6c6.4-9.2,19-17.8,37.5-17.8c19.3,0,31.6,9.2,39,23.1
		c6.7-13.9,21.8-23.1,40.3-23.1c33.1,0,49.6,19.7,49.6,49.5v85.7h-39.6v-74.4c0-16.5-8.5-24.4-21.1-24.4c-11.3,0-22.6,6.3-22.6,28.6
		v70.2h-39.6v-74.4c0-16.2-8.2-24.1-20.8-24.1c-11.3,0-22.9,6.3-22.9,28.3V347.1z"/>
	<path class="st0" d="M356.2,347.1H319V149.5h39.6v81.8c7.7-11.8,24.7-19.7,43.2-19.7c36,0,58.8,28.6,58.8,71.3
		c0,40.6-25.4,67.6-61.9,67.6c-18,0-33.4-8.1-40.3-20.2L356.2,347.1z M358.8,280.8c0,19.7,12.8,32.8,31.3,32.8
		c18.8,0,30.6-13.4,30.6-32.8c0-19.4-11.8-32.8-30.6-32.8C371.6,248,358.8,261.1,358.8,280.8z"/>
	<path class="st0" d="M304,263.6c0,12.7-10.1,23-22.5,23c-12.4,0-22.5-10.3-22.5-23c0-12.7,10.1-23,22.5-23
		C293.9,240.6,304,250.9,304,263.6z"/>
	<path class="st0" d="M304,324.1c0,12.7-10.1,23-22.5,23c-12.4,0-22.5-10.3-22.5-23c0-12.7,10.1-23,22.5-23
		C293.9,301.1,304,311.4,304,324.1z"/>
</g>
</svg>
