<svg width="836" height="274" viewBox="0 0 836 274" fill="none" xmlns="http://www.w3.org/2000/svg">
<path d="M54.8062 207.206H24V107.217H52.8058L54.8062 117.616C59.8071 110.617 69.6092 104.018 84.012 104.018C99.0149 104.018 108.617 111.017 114.418 121.616C119.619 111.017 131.421 104.018 145.824 104.018C171.629 104.018 184.432 119.016 184.432 141.813V207.206H153.626V150.412C153.626 137.814 147.025 131.815 137.223 131.815C128.421 131.815 119.619 136.614 119.619 153.612V207.206H88.8129V150.412C88.8129 138.014 82.4116 132.015 72.6097 132.015C63.808 132.015 54.8062 136.814 54.8062 153.612V207.206Z" fill="#303A3C"/>
<path d="M209.267 91.6192C199.465 91.6192 191.664 83.8201 191.664 74.0213C191.664 64.2224 199.465 56.6233 209.267 56.6233C218.869 56.6233 226.671 64.2224 226.671 74.0213C226.671 83.8201 218.869 91.6192 209.267 91.6192ZM194.064 207.206V107.217H224.87V207.206H194.064Z" fill="#303A3C"/>
<path d="M281.37 207.206H250.563V132.814H231.56V107.217H250.563V76.221H281.37V107.217H300.373V132.814H281.37V207.206Z" fill="#303A3C"/>
<path d="M301.661 157.012C301.661 125.415 324.866 104.218 356.872 104.218C388.679 104.218 411.883 125.415 411.883 157.012C411.883 188.608 388.679 209.606 356.872 209.606C324.866 209.606 301.661 188.608 301.661 157.012ZM332.668 156.812C332.668 172.01 342.47 182.009 356.872 182.009C371.075 182.009 380.877 172.01 380.877 156.812C380.877 141.813 371.075 131.815 356.872 131.815C342.47 131.815 332.668 141.813 332.668 156.812Z" fill="#303A3C"/>
<path d="M446.212 207.206H417.206V56.4233H448.013V118.816C454.014 109.817 467.217 103.818 481.619 103.818C509.625 103.818 527.429 125.615 527.429 158.212C527.429 189.208 507.625 209.806 479.219 209.806C465.216 209.806 453.214 203.606 447.812 194.407L446.212 207.206ZM448.213 156.612C448.213 171.61 458.215 181.609 472.618 181.609C487.221 181.609 496.422 171.41 496.422 156.612C496.422 141.813 487.221 131.615 472.618 131.615C458.215 131.615 448.213 141.613 448.213 156.612Z" fill="#303A3C"/>
<path d="M529.746 255.2V229.403H546.75C557.152 229.403 561.553 226.204 565.553 215.405L567.354 210.605L527.146 107.217H560.152L581.957 171.41L606.161 107.217H638.167L587.358 229.003C578.956 249.401 567.754 258 550.15 258C542.749 258 535.748 257 529.746 255.2Z" fill="#303A3C"/>
<path d="M691.264 207.206H660.458V132.814H641.454V107.217H660.458V76.221H691.264V107.217H710.268V132.814H691.264V207.206Z" fill="#303A3C"/>
<path d="M761.19 209.806C730.984 209.806 709.38 187.808 709.38 157.012C709.38 125.815 730.384 104.018 760.59 104.018C791.996 104.018 811.6 124.615 811.6 157.212V165.011L738.986 165.411C740.786 178.609 748.187 184.808 761.79 184.808C773.392 184.808 781.594 180.609 783.794 173.41H812C808.399 195.607 788.595 209.806 761.19 209.806ZM760.79 129.015C748.587 129.015 741.786 134.414 739.386 146.413H780.994C780.994 135.814 773.192 129.015 760.79 129.015Z" fill="#303A3C"/>
<path d="M226.686 33.612C226.686 43.3388 218.798 51.224 209.069 51.224C199.339 51.224 191.451 43.3388 191.451 33.612C191.451 23.8852 199.339 16 209.069 16C218.798 16 226.686 23.8852 226.686 33.612Z" fill="#303A3C"/>
</svg>
