<svg width="66" height="40" viewBox="0 0 66 40" fill="none" xmlns="http://www.w3.org/2000/svg">
<path d="M12.698 31.5932H8V15.9478H12.393L12.698 17.575C13.4607 16.4798 14.9555 15.4472 17.152 15.4472C19.44 15.4472 20.9043 16.5424 21.789 18.2008C22.5822 16.5424 24.3821 15.4472 26.5786 15.4472C30.5139 15.4472 32.4664 17.794 32.4664 21.3611V31.5932H27.7683V22.7067C27.7683 20.7353 26.7616 19.7966 25.2668 19.7966C23.9245 19.7966 22.5822 20.5476 22.5822 23.2073V31.5932H17.8842V22.7067C17.8842 20.7666 16.908 19.8279 15.4131 19.8279C14.0708 19.8279 12.698 20.5789 12.698 23.2073V31.5932Z" fill="#303A3C"/>
<path d="M45.6143 31.5932H41.1908V8H45.8888V17.7627C46.804 16.3546 48.8175 15.4159 51.014 15.4159C55.2849 15.4159 58 18.8266 58 23.927C58 28.7771 54.9798 32 50.6479 32C48.5124 32 46.682 31.03 45.8583 29.5906L45.6143 31.5932ZM45.9194 23.6767C45.9194 26.0235 47.4447 27.588 49.6412 27.588C51.8682 27.588 53.2715 25.9922 53.2715 23.6767C53.2715 21.3611 51.8682 19.7653 49.6412 19.7653C47.4447 19.7653 45.9194 21.3299 45.9194 23.6767Z" fill="#303A3C"/>
<path d="M39.4107 21.6204C39.4107 23.1364 38.2126 24.3652 36.7347 24.3652C35.2568 24.3652 34.0587 23.1364 34.0587 21.6204C34.0587 20.1045 35.2568 18.8756 36.7347 18.8756C38.2126 18.8756 39.4107 20.1045 39.4107 21.6204Z" fill="#303A3C"/>
<path d="M39.4107 28.8484C39.4107 30.3643 38.2126 31.5932 36.7347 31.5932C35.2568 31.5932 34.0587 30.3643 34.0587 28.8484C34.0587 27.3325 35.2568 26.1036 36.7347 26.1036C38.2126 26.1036 39.4107 27.3325 39.4107 28.8484Z" fill="#303A3C"/>
</svg>
